<svg xmlns="http://www.w3.org/2000/svg" style="display:none">
  <!-- Hyundai - simplified official logo shape -->
  <symbol id="hyundai" viewBox="0 0 100 100">
    <path d="M50 20c-8.3 0-15 6.7-15 15v30c0 8.3 6.7 15 15 15s15-6.7 15-15V35c0-8.3-6.7-15-15-15zm10 45c0 5.5-4.5 10-10 10s-10-4.5-10-10V35c0-5.5 4.5-10 10-10s10 4.5 10 10v30z" fill="currentColor"/>
    <ellipse cx="50" cy="50" rx="25" ry="8" fill="currentColor" opacity="0.3"/>
  </symbol>
  
  <!-- Kia - simplified official logo shape -->
  <symbol id="kia" viewBox="0 0 100 100">
    <path d="M20 30h8v40h-8zm20 0h8l12 20V30h8v40h-8L48 50v20h-8zm32 0h8l8 15 8-15h8L92 50l12 20h-8l-8-15-8 15h-8l12-20z" fill="currentColor"/>
  </symbol>
  
  <!-- Toyota - simplified official logo shape -->
  <symbol id="toyota" viewBox="0 0 100 100">
    <ellipse cx="50" cy="50" rx="30" ry="20" fill="none" stroke="currentColor" stroke-width="3"/>
    <ellipse cx="50" cy="50" rx="20" ry="30" fill="none" stroke="currentColor" stroke-width="3"/>
    <circle cx="50" cy="50" r="8" fill="currentColor"/>
  </symbol>
  
  <!-- Lexus - simplified official logo shape -->
  <symbol id="lexus" viewBox="0 0 100 100">
    <path d="M20 30h8v35h20v5H20zm28 0h28v5H56v35h-8V35zm32 0h20v5H88v12h12v5H88v13h12v5H80z" fill="currentColor"/>
  </symbol>
  
  <!-- Honda - simplified official logo shape -->
  <symbol id="honda" viewBox="0 0 100 100">
    <path d="M25 30h8v15h34V30h8v40h-8V50H33v20h-8zm50 0h8v40h-8z" fill="currentColor"/>
  </symbol>
  
  <!-- Acura - simplified official logo shape -->
  <symbol id="acura" viewBox="0 0 100 100">
    <path d="M50 25L30 70h8l4-10h16l4 10h8L50 25zm0 12l6 18h-12l6-18z" fill="currentColor"/>
    <path d="M25 65h50v5H25z" fill="currentColor"/>
  </symbol>
  
  <!-- Nissan - simplified official logo shape -->
  <symbol id="nissan" viewBox="0 0 100 100">
    <circle cx="50" cy="50" r="25" fill="none" stroke="currentColor" stroke-width="3"/>
    <rect x="35" y="45" width="30" height="10" fill="currentColor"/>
  </symbol>
  
  <!-- Infiniti - simplified official logo shape -->
  <symbol id="infiniti" viewBox="0 0 100 100">
    <path d="M50 25L35 50l15 25V25zm0 0l15 25-15 25V25z" fill="currentColor"/>
    <path d="M30 48h40v4H30z" fill="currentColor"/>
  </symbol>
  
  <!-- Mitsubishi - simplified official logo shape -->
  <symbol id="mitsubishi" viewBox="0 0 100 100">
    <path d="M50 25L35 45h30L50 25zm-15 25L20 70h30L35 50zm30 0L50 70h30L65 50z" fill="currentColor"/>
  </symbol>
  
  <!-- Suzuki - simplified official logo shape -->
  <symbol id="suzuki" viewBox="0 0 100 100">
    <path d="M25 35c0-5 4-10 10-10h30c5 0 10 4 10 10v5H25v-5zm0 10h50v5c0 3-2 5-5 5H55v10h15v5H30v-5h15V55H30c-3 0-5-2-5-5v-5z" fill="currentColor"/>
  </symbol>
</svg>
